<mxfile host="app.diagrams.net" modified="2022-11-14T13:13:39.735Z" agent="5.0 (Macintosh; Intel Mac OS X 10_15_7) AppleWebKit/537.36 (KHTML, like Gecko) Chrome/107.0.0.0 Safari/537.36" etag="8SBrrGMtnPNemoZQoo-G" version="20.5.2" type="github">
  <diagram id="-Vk5RplwK14qsSj6e-SG" name="第 1 页">
    <mxGraphModel dx="1530" dy="836" grid="1" gridSize="10" guides="1" tooltips="1" connect="1" arrows="1" fold="1" page="1" pageScale="1" pageWidth="827" pageHeight="1169" math="0" shadow="0">
      <root>
        <mxCell id="0" />
        <mxCell id="1" parent="0" />
        <mxCell id="Vlqnv5aZTNKnBmmuv2tM-17" style="edgeStyle=orthogonalEdgeStyle;rounded=0;orthogonalLoop=1;jettySize=auto;html=1;entryX=0;entryY=0.5;entryDx=0;entryDy=0;" edge="1" parent="1" source="Vlqnv5aZTNKnBmmuv2tM-1" target="Vlqnv5aZTNKnBmmuv2tM-2">
          <mxGeometry relative="1" as="geometry" />
        </mxCell>
        <mxCell id="Vlqnv5aZTNKnBmmuv2tM-19" value="访问路径1" style="edgeLabel;html=1;align=center;verticalAlign=middle;resizable=0;points=[];" vertex="1" connectable="0" parent="Vlqnv5aZTNKnBmmuv2tM-17">
          <mxGeometry x="-0.0405" y="1" relative="1" as="geometry">
            <mxPoint as="offset" />
          </mxGeometry>
        </mxCell>
        <mxCell id="Vlqnv5aZTNKnBmmuv2tM-18" style="edgeStyle=orthogonalEdgeStyle;rounded=0;orthogonalLoop=1;jettySize=auto;html=1;entryX=0;entryY=0.5;entryDx=0;entryDy=0;" edge="1" parent="1" source="Vlqnv5aZTNKnBmmuv2tM-1" target="Vlqnv5aZTNKnBmmuv2tM-14">
          <mxGeometry relative="1" as="geometry" />
        </mxCell>
        <mxCell id="Vlqnv5aZTNKnBmmuv2tM-20" value="访问路径2" style="edgeLabel;html=1;align=center;verticalAlign=middle;resizable=0;points=[];" vertex="1" connectable="0" parent="Vlqnv5aZTNKnBmmuv2tM-18">
          <mxGeometry x="0.132" y="-1" relative="1" as="geometry">
            <mxPoint y="-6" as="offset" />
          </mxGeometry>
        </mxCell>
        <mxCell id="Vlqnv5aZTNKnBmmuv2tM-1" value="" style="shape=actor;whiteSpace=wrap;html=1;" vertex="1" parent="1">
          <mxGeometry x="90" y="420" width="40" height="60" as="geometry" />
        </mxCell>
        <mxCell id="Vlqnv5aZTNKnBmmuv2tM-11" style="edgeStyle=orthogonalEdgeStyle;rounded=0;orthogonalLoop=1;jettySize=auto;html=1;exitX=1;exitY=0.5;exitDx=0;exitDy=0;" edge="1" parent="1" source="Vlqnv5aZTNKnBmmuv2tM-2" target="Vlqnv5aZTNKnBmmuv2tM-10">
          <mxGeometry relative="1" as="geometry" />
        </mxCell>
        <mxCell id="Vlqnv5aZTNKnBmmuv2tM-2" value="访问系统" style="rounded=0;whiteSpace=wrap;html=1;" vertex="1" parent="1">
          <mxGeometry x="250" y="370" width="120" height="60" as="geometry" />
        </mxCell>
        <mxCell id="Vlqnv5aZTNKnBmmuv2tM-5" style="edgeStyle=orthogonalEdgeStyle;rounded=0;orthogonalLoop=1;jettySize=auto;html=1;" edge="1" parent="1" source="Vlqnv5aZTNKnBmmuv2tM-4" target="Vlqnv5aZTNKnBmmuv2tM-2">
          <mxGeometry relative="1" as="geometry" />
        </mxCell>
        <mxCell id="Vlqnv5aZTNKnBmmuv2tM-22" value="引入SDK" style="edgeLabel;html=1;align=center;verticalAlign=middle;resizable=0;points=[];" vertex="1" connectable="0" parent="Vlqnv5aZTNKnBmmuv2tM-5">
          <mxGeometry x="-0.2296" relative="1" as="geometry">
            <mxPoint as="offset" />
          </mxGeometry>
        </mxCell>
        <mxCell id="Vlqnv5aZTNKnBmmuv2tM-9" style="edgeStyle=orthogonalEdgeStyle;rounded=0;orthogonalLoop=1;jettySize=auto;html=1;exitX=1;exitY=0.5;exitDx=0;exitDy=0;entryX=0;entryY=0.5;entryDx=0;entryDy=0;" edge="1" parent="1" source="Vlqnv5aZTNKnBmmuv2tM-4" target="Vlqnv5aZTNKnBmmuv2tM-8">
          <mxGeometry relative="1" as="geometry" />
        </mxCell>
        <mxCell id="Vlqnv5aZTNKnBmmuv2tM-24" value="根据配置文件预加载" style="edgeLabel;html=1;align=center;verticalAlign=middle;resizable=0;points=[];" vertex="1" connectable="0" parent="Vlqnv5aZTNKnBmmuv2tM-9">
          <mxGeometry x="-0.0688" y="1" relative="1" as="geometry">
            <mxPoint as="offset" />
          </mxGeometry>
        </mxCell>
        <mxCell id="Vlqnv5aZTNKnBmmuv2tM-4" value="插件SDK" style="shape=process;whiteSpace=wrap;html=1;backgroundOutline=1;" vertex="1" parent="1">
          <mxGeometry x="250" y="240" width="120" height="60" as="geometry" />
        </mxCell>
        <mxCell id="Vlqnv5aZTNKnBmmuv2tM-7" style="edgeStyle=orthogonalEdgeStyle;rounded=0;orthogonalLoop=1;jettySize=auto;html=1;entryX=0.5;entryY=0;entryDx=0;entryDy=0;" edge="1" parent="1" source="Vlqnv5aZTNKnBmmuv2tM-6" target="Vlqnv5aZTNKnBmmuv2tM-4">
          <mxGeometry relative="1" as="geometry" />
        </mxCell>
        <mxCell id="Vlqnv5aZTNKnBmmuv2tM-23" value="读取配置文件" style="edgeLabel;html=1;align=center;verticalAlign=middle;resizable=0;points=[];" vertex="1" connectable="0" parent="Vlqnv5aZTNKnBmmuv2tM-7">
          <mxGeometry x="-0.1012" y="1" relative="1" as="geometry">
            <mxPoint as="offset" />
          </mxGeometry>
        </mxCell>
        <mxCell id="Vlqnv5aZTNKnBmmuv2tM-6" value="需预加载的插件：&lt;br&gt;plugin1&lt;br&gt;plugin2&lt;br&gt;plugin3" style="shape=note;whiteSpace=wrap;html=1;backgroundOutline=1;darkOpacity=0.05;align=left;" vertex="1" parent="1">
          <mxGeometry x="245" y="80" width="130" height="100" as="geometry" />
        </mxCell>
        <mxCell id="Vlqnv5aZTNKnBmmuv2tM-8" value="已预加载的插件：&lt;br&gt;plugin1&lt;br&gt;plugin2&lt;br&gt;" style="rounded=0;whiteSpace=wrap;html=1;align=left;" vertex="1" parent="1">
          <mxGeometry x="530" y="240" width="120" height="60" as="geometry" />
        </mxCell>
        <mxCell id="Vlqnv5aZTNKnBmmuv2tM-12" style="edgeStyle=orthogonalEdgeStyle;rounded=0;orthogonalLoop=1;jettySize=auto;html=1;entryX=0;entryY=0.5;entryDx=0;entryDy=0;" edge="1" parent="1" source="Vlqnv5aZTNKnBmmuv2tM-10" target="Vlqnv5aZTNKnBmmuv2tM-13">
          <mxGeometry relative="1" as="geometry">
            <mxPoint x="630" y="400" as="targetPoint" />
          </mxGeometry>
        </mxCell>
        <mxCell id="Vlqnv5aZTNKnBmmuv2tM-21" value="无需等待" style="edgeLabel;html=1;align=center;verticalAlign=middle;resizable=0;points=[];" vertex="1" connectable="0" parent="Vlqnv5aZTNKnBmmuv2tM-12">
          <mxGeometry x="0.144" relative="1" as="geometry">
            <mxPoint x="-11" as="offset" />
          </mxGeometry>
        </mxCell>
        <mxCell id="Vlqnv5aZTNKnBmmuv2tM-26" style="edgeStyle=orthogonalEdgeStyle;rounded=0;orthogonalLoop=1;jettySize=auto;html=1;entryX=0.5;entryY=1;entryDx=0;entryDy=0;dashed=1;" edge="1" parent="1" source="Vlqnv5aZTNKnBmmuv2tM-10" target="Vlqnv5aZTNKnBmmuv2tM-8">
          <mxGeometry relative="1" as="geometry" />
        </mxCell>
        <mxCell id="Vlqnv5aZTNKnBmmuv2tM-27" value="检查" style="edgeLabel;html=1;align=center;verticalAlign=middle;resizable=0;points=[];" vertex="1" connectable="0" parent="Vlqnv5aZTNKnBmmuv2tM-26">
          <mxGeometry x="-0.1672" relative="1" as="geometry">
            <mxPoint x="16" as="offset" />
          </mxGeometry>
        </mxCell>
        <mxCell id="Vlqnv5aZTNKnBmmuv2tM-10" value="访问plugin1" style="rounded=0;whiteSpace=wrap;html=1;" vertex="1" parent="1">
          <mxGeometry x="460" y="370" width="120" height="60" as="geometry" />
        </mxCell>
        <mxCell id="Vlqnv5aZTNKnBmmuv2tM-13" value="直接缓存读出" style="rounded=0;whiteSpace=wrap;html=1;" vertex="1" parent="1">
          <mxGeometry x="670" y="370" width="120" height="60" as="geometry" />
        </mxCell>
        <mxCell id="Vlqnv5aZTNKnBmmuv2tM-16" style="edgeStyle=orthogonalEdgeStyle;rounded=0;orthogonalLoop=1;jettySize=auto;html=1;entryX=-0.028;entryY=0.591;entryDx=0;entryDy=0;entryPerimeter=0;" edge="1" parent="1" source="Vlqnv5aZTNKnBmmuv2tM-14" target="Vlqnv5aZTNKnBmmuv2tM-15">
          <mxGeometry relative="1" as="geometry" />
        </mxCell>
        <mxCell id="Vlqnv5aZTNKnBmmuv2tM-14" value="访问系统plugin3" style="rounded=0;whiteSpace=wrap;html=1;" vertex="1" parent="1">
          <mxGeometry x="250" y="470" width="120" height="60" as="geometry" />
        </mxCell>
        <mxCell id="Vlqnv5aZTNKnBmmuv2tM-15" value="等代plugin3加载" style="rounded=0;whiteSpace=wrap;html=1;" vertex="1" parent="1">
          <mxGeometry x="460" y="465" width="120" height="60" as="geometry" />
        </mxCell>
      </root>
    </mxGraphModel>
  </diagram>
</mxfile>
